{
  "accessors": [
    {
      "bufferView": 0,
      "componentType": 5125,
      "count": 126162,
      "type": "SCALAR"
    },
    {
      "bufferView": 1,
      "componentType": 5126,
      "count": 34974,
      "max": [
        0.608455896377563,
        0.60845959186554,
        1.0
      ],
      "min": [
        -0.608455896377563,
        -0.60845959186554,
        -1.0
      ],
      "type": "VEC3"
    },
    {
      "bufferView": 2,
      "componentType": 5126,
      "count": 34974,
      "type": "VEC3"
    },
    {
      "bufferView": 3,
      "componentType": 5126,
      "count": 34974,
      "type": "VEC2"
    }
  ],
  "asset": {
    "generator": "Substance Painter 2019.2.3",
    "version": "2.0"
  },
  "bufferViews": [
    {
      "buffer": 0,
      "byteLength": 504648,
      "target": 34963
    },
    {
      "buffer": 0,
      "byteLength": 419688,
      "byteOffset": 504648,
      "target": 34962
    },
    {
      "buffer": 0,
      "byteLength": 419688,
      "byteOffset": 924336,
      "target": 34962
    },
    {
      "buffer": 0,
      "byteLength": 279792,
      "byteOffset": 1344024,
      "target": 34962
    }
  ],
  "buffers": [
    {
      "byteLength": 1623816,
      "uri": "PBR - Metallic Roughness.bin"
    }
  ],
  "images": [
    {
      "uri": "tube17_initialShadingGroup_baseColor.png"
    },
    {
      "uri": "tube17_initialShadingGroup_occlusionRoughnessMetallic.png"
    },
    {
      "uri": "tube17_initialShadingGroup_normal.png"
    }
  ],
  "materials": [
    {
      "alphaMode": "OPAQUE",
      "name": "tube17_initialShadingGroup",
      "normalTexture": {
        "index": 2
      },
      "occlusionTexture": {
        "index": 1
      },
      "pbrMetallicRoughness": {
        "baseColorTexture": {
          "index": 0
        },
        "metallicRoughnessTexture": {
          "index": 1
        }
      }
    }
  ],
  "meshes": [
    {
      "name": "tube17:OU_Hard_Surface_37",
      "primitives": [
        {
          "attributes": {
            "NORMAL": 2,
            "POSITION": 1,
            "TEXCOORD_0": 3
          },
          "indices": 0,
          "material": 0,
          "mode": 4
        }
      ]
    }
  ],
  "nodes": [
    {
      "children": [
        1
      ],
      "name": "test.obj",
      "scale": [
        8.96634578704834,
        8.96634578704834,
        8.96634578704834
      ],
      "translation": [
        -2.56778287887573,
        6.93758678436279,
        -0.287646293640137
      ]
    },
    {
      "children": [
        2
      ],
      "name": "g tube17:OU_Hard_Surface_37"
    },
    {
      "mesh": 0,
      "name": "tube17:OU_Hard_Surface_37"
    }
  ],
  "samplers": [
    {
      "magFilter": 9729,
      "minFilter": 9985,
      "wrapS": 10497,
      "wrapT": 10497
    }
  ],
  "scene": 0,
  "scenes": [
    {
      "name": "Scene",
      "nodes": [
        0
      ]
    }
  ],
  "textures": [
    {
      "sampler": 0,
      "source": 0
    },
    {
      "sampler": 0,
      "source": 1
    },
    {
      "sampler": 0,
      "source": 2
    }
  ]
}